<?xml version="1.0" standalone="no"?>
<!DOCTYPE svg PUBLIC "-//W3C//DTD SVG 20010904//EN"
 "http://www.w3.org/TR/2001/REC-SVG-20010904/DTD/svg10.dtd">
<svg version="1.0" xmlns="http://www.w3.org/2000/svg"
 width="840.000000pt" height="879.000000pt" viewBox="0 0 840.000000 879.000000"
 preserveAspectRatio="xMidYMid meet">

<g transform="translate(0.000000,879.000000) scale(0.100000,-0.100000)"
fill="#000000" stroke="none">
<path d="M3080 8373 c-95 -16 -411 -91 -558 -133 -425 -119 -846 -298 -1107
-468 l-90 -59 -28 -96 c-48 -162 -67 -289 -74 -472 -4 -147 -2 -188 17 -299
32 -190 93 -362 176 -495 l27 -45 -31 22 c-44 32 -146 145 -204 227 -98 138
-185 345 -222 526 -17 84 -36 271 -36 362 0 31 -4 57 -9 57 -15 0 -166 -171
-253 -288 -158 -211 -278 -458 -334 -688 l-28 -112 61 -123 c196 -397 550
-753 978 -985 79 -43 103 -59 73 -49 -252 78 -398 139 -568 238 -250 146 -456
332 -608 550 -22 32 -42 54 -45 50 -13 -21 -18 -293 -7 -428 24 -317 93 -549
220 -735 55 -80 156 -173 230 -210 195 -98 775 -245 1370 -347 l165 -28 -80
-3 c-266 -11 -881 56 -1218 133 -192 44 -181 47 -112 -25 33 -34 114 -105 180
-158 528 -426 1265 -762 2055 -937 87 -19 163 -35 167 -35 4 1 -67 39 -159 85
-355 177 -608 354 -727 509 -24 31 -42 58 -40 60 11 9 366 -113 592 -203 243
-97 754 -338 820 -386 16 -12 16 -16 -4 -81 -60 -195 -245 -484 -465 -727 -49
-54 -95 -109 -103 -121 -12 -19 -8 -43 40 -213 29 -106 56 -190 60 -187 22 13
342 440 461 614 l17 25 -8 -30 c-46 -171 -257 -614 -423 -890 -26 -44 -48 -83
-48 -87 0 -3 30 -29 68 -56 37 -28 115 -99 174 -159 162 -163 270 -310 374
-506 l51 -99 6 434 c4 340 10 473 26 618 22 205 58 410 72 410 5 0 9 -24 9
-52 0 -191 74 -954 126 -1303 36 -243 60 -366 106 -540 15 -58 23 -35 57 175
57 350 104 797 141 1335 12 171 24 330 27 355 6 44 6 45 15 15 13 -47 56 -296
73 -424 23 -183 44 -437 55 -686 6 -126 14 -254 16 -284 l6 -53 60 108 c132
239 282 445 443 609 l103 105 -74 128 c-92 158 -237 442 -297 583 -42 97 -107
273 -107 286 0 3 37 -48 83 -113 153 -220 392 -530 400 -517 2 4 28 92 56 196
l52 188 -28 33 c-15 18 -62 71 -104 119 -153 174 -289 368 -376 542 -48 95
-93 206 -93 230 0 33 541 292 920 440 144 56 464 165 487 165 20 0 16 -9 -29
-67 -102 -133 -372 -322 -686 -480 -111 -57 -198 -103 -192 -103 29 0 345 76
503 121 637 180 1243 476 1689 825 114 90 272 234 264 241 -3 3 -53 -6 -113
-21 -344 -81 -909 -147 -1238 -145 l-120 1 210 37 c625 113 1098 232 1319 334
60 28 94 53 150 109 162 163 260 394 300 706 16 126 21 501 7 552 -7 24 -7 24
-31 -15 -39 -63 -134 -178 -212 -257 -153 -154 -336 -283 -563 -394 -138 -67
-365 -154 -403 -154 -9 0 24 23 73 51 230 131 386 250 560 424 194 193 344
404 429 602 l34 80 -14 69 c-49 232 -178 504 -349 734 -72 96 -239 280 -255
280 -4 0 -10 -73 -13 -162 -6 -174 -25 -287 -73 -431 -63 -194 -174 -376 -311
-513 -84 -84 -115 -103 -74 -46 37 52 101 195 131 292 95 306 89 665 -16 995
l-26 81 -91 59 c-287 186 -780 386 -1242 503 -185 47 -464 106 -471 99 -2 -2
24 -14 58 -27 94 -34 284 -123 379 -178 495 -286 764 -641 811 -1070 27 -245
-64 -655 -183 -828 -16 -23 -29 -46 -29 -50 0 -4 18 -35 39 -68 64 -97 140
-266 168 -373 36 -133 38 -329 6 -443 -95 -332 -369 -612 -831 -848 -122 -62
-376 -170 -442 -187 -14 -3 43 29 125 73 277 145 466 275 634 437 123 119 210
235 276 370 69 142 95 246 95 384 0 93 -17 212 -33 227 -3 3 -25 -37 -49 -88
-81 -169 -165 -291 -293 -427 -206 -218 -491 -412 -773 -527 -104 -42 -107
-44 -116 -81 -39 -172 -91 -298 -168 -412 -40 -59 -138 -179 -171 -209 l-24
-23 -6 38 c-3 21 -27 221 -53 446 l-47 407 83 82 c138 137 226 269 264 397 16
56 20 156 7 201 -7 23 -10 18 -41 -45 -22 -48 -54 -91 -99 -136 -107 -107
-219 -154 -406 -170 -151 -13 -243 -37 -370 -98 -295 -142 -524 -402 -525
-596 0 -74 12 -82 38 -26 60 124 203 235 386 297 84 29 98 30 89 7 -4 -10 -74
-166 -156 -348 -82 -181 -165 -367 -185 -412 -19 -46 -38 -83 -43 -83 -11 0
-153 164 -205 236 -94 131 -173 313 -189 430 l-6 51 -82 33 c-511 208 -939
589 -1106 985 -15 34 -30 62 -36 64 -19 5 -37 -95 -38 -209 -1 -274 117 -516
374 -765 169 -164 324 -273 609 -428 157 -85 155 -88 -20 -20 -139 54 -355
161 -469 232 -200 124 -403 307 -500 450 -54 79 -114 206 -137 291 -28 100
-26 328 4 437 37 136 99 269 202 429 12 19 10 25 -12 55 -131 174 -227 620
-189 879 38 257 145 470 339 672 112 116 208 196 346 287 123 80 350 196 474
240 110 40 118 49 32 34z"/>
</g>
</svg>
